<svg width="91.000000" height="91.000000" viewBox="0 0 91 91" fill="none" xmlns="http://www.w3.org/2000/svg" xmlns:xlink="http://www.w3.org/1999/xlink">
	<desc>
			Created with Pixso.
	</desc>
	<defs>
		<clipPath id="clip142_888">
			<rect id="arrows 1" width="38.000000" height="38.000000" transform="translate(27.000000 17.000000)" fill="white" fill-opacity="0"/>
		</clipPath>
	</defs>
	<rect id="Rectangle 2" rx="4.000000" width="91.000000" height="91.000000" fill="#3A587E" fill-opacity="1.000000"/>
	<path id="Состав" d="M31.82 66.38C31.31 65.9 30.59 65.66 29.64 65.66L26.18 65.67L26.28 72.01L26.18 74.7L28.09 74.7L28 71.84L28 71.81L28.9 71.81Q30.02 71.81 30.85 71.39C31.41 71.11 31.84 70.72 32.14 70.21C32.44 69.7 32.59 69.1 32.59 68.42Q32.59 67.3 32.04 66.62Q31.94 66.49 31.82 66.38ZM73.52 66.38C73.02 65.9 72.29 65.66 71.35 65.66L67.89 65.67L67.99 72.01L67.89 74.7L69.8 74.7L69.71 71.84L69.71 71.81L70.61 71.81C71.36 71.81 72 71.67 72.56 71.39C73.12 71.11 73.55 70.72 73.85 70.21C74.14 69.7 74.29 69.1 74.29 68.42Q74.29 67.3 73.75 66.62Q73.64 66.49 73.52 66.38ZM15.29 74.7L15.22 71.84L15.32 65.67L8.27 65.67L8.35 72.01L8.27 74.7L10.16 74.7L10.09 71.84L10.16 67.15L13.41 67.15L13.48 72.01L13.4 74.7L15.29 74.7ZM22.83 74.7L24.76 74.7L22 65.67L19.74 65.67L16.69 74.7L18.57 74.7L18.81 73.42L19.04 72.68L20.6 72.64L22.36 72.68L22.6 73.52L22.83 74.7ZM38.52 74.7L40.46 74.7L37.7 65.67L35.44 65.67L32.38 74.7L34.26 74.7L34.5 73.42L34.74 72.68L36.29 72.64L38.06 72.68L38.3 73.52L38.52 74.7ZM49.67 74.7L51.35 74.7L50.54 65.67L48.39 65.67L47.99 67.01L46.49 71.28L46.36 71.28L44.93 67.01L44.57 65.67L42.38 65.67L41.47 74.7L43.07 74.7L43.26 71.78L43.61 68.49L43.74 68.49L45.58 73.75L47.05 73.75L49.07 68.49L49.21 68.49L49.53 71.97L49.67 74.7ZM59.16 73.28L59.05 73.13L56.82 73.21L55.24 73.2L55.19 71.84L55.21 70.87L56.65 70.86L58.25 70.9L58.37 69.49L58.26 69.35L56.79 69.39L55.24 69.36L55.28 67.19L56.9 67.17L59.06 67.24L59.2 65.83L59.09 65.67L53.37 65.67L53.47 72.01L53.37 74.7L59.03 74.7L59.16 73.28ZM66.49 67.24L66.6 65.83L66.49 65.67L60.08 65.67L59.96 67.09L60.08 67.24L61.81 67.16L62.37 67.16L62.44 72.01L62.34 74.7L64.24 74.7L64.16 71.84L64.23 67.16L64.79 67.16L66.49 67.24ZM81.08 69.78C80.63 69.35 79.99 69.14 79.15 69.14L77.47 69.14L77.52 65.67L75.6 65.67L75.7 72.02L75.6 74.7L78.1 74.7C79.24 74.7 80.14 74.43 80.79 73.89C81.43 73.33 81.75 72.57 81.75 71.6C81.75 70.81 81.53 70.2 81.08 69.78ZM84.71 74.7L84.63 71.84L84.74 65.67L82.8 65.67L82.9 72.01L82.8 74.7L84.71 74.7ZM30.2 69.9Q29.88 70.27 29.32 70.42L28.03 70.37L28.09 67.12L29.04 67.06C29.57 67.08 29.97 67.22 30.22 67.47C30.48 67.71 30.61 68.08 30.61 68.59Q30.61 69.42 30.2 69.9ZM71.91 69.9Q71.59 70.27 71.03 70.42L69.74 70.37L69.8 67.12L70.75 67.06C71.28 67.08 71.67 67.22 71.93 67.47C72.19 67.71 72.32 68.08 72.32 68.59Q72.32 69.42 71.91 69.9ZM20.89 67.45L21.96 71.21L20.74 71.24L19.53 71.21L20.77 67.45L20.89 67.45ZM36.59 67.45L37.65 71.21L36.43 71.24L35.23 71.21L36.46 67.45L36.59 67.45ZM79.48 72.88C79.28 73.14 78.98 73.31 78.6 73.38L77.47 73.33L77.42 71.84L77.45 70.51L78.52 70.48Q79.03 70.48 79.33 70.73Q79.4 70.78 79.46 70.85C79.68 71.08 79.79 71.42 79.79 71.85C79.79 72.27 79.69 72.61 79.48 72.88Z" fill="#FFFFFF" fill-opacity="1.000000" fill-rule="evenodd"/>
	<rect id="arrows 1" width="38.000000" height="38.000000" transform="translate(27.000000 17.000000)" fill="#FFFFFF" fill-opacity="0"/>
	<g clip-path="url(#clip142_888)">
		<path id="Vector" d="M45.21 17.32L38.54 23.99C38.1 24.43 38.1 25.13 38.54 25.56L41.69 28.71C41.95 28.98 42.31 29.08 42.66 29.03L42.66 32.66L39.03 32.66C39.08 32.31 38.97 31.95 38.71 31.69L35.57 28.54C35.13 28.1 34.43 28.1 33.99 28.54L27.32 35.21C26.89 35.64 26.89 36.35 27.32 36.78L33.99 43.45C34.43 43.89 35.13 43.89 35.57 43.45L38.71 40.3C38.97 40.04 39.08 39.68 39.03 39.33L42.66 39.33L42.66 42.96C42.31 42.91 41.95 43.01 41.69 43.28L38.54 46.43C38.1 46.86 38.1 47.56 38.54 48L45.21 54.67C45.64 55.1 46.35 55.1 46.78 54.67L53.45 48C53.89 47.57 53.89 46.86 53.45 46.43L50.3 43.28C50.04 43.01 49.68 42.91 49.34 42.96L49.34 39.34L52.97 39.34C52.91 39.68 53.02 40.04 53.28 40.3L56.43 43.45C56.86 43.89 57.57 43.89 58 43.45L64.67 36.78C65.1 36.35 65.1 35.64 64.67 35.21L58 28.54C57.57 28.1 56.86 28.1 56.43 28.54L53.28 31.69C53.02 31.95 52.91 32.31 52.97 32.66L49.34 32.66L49.34 29.03C49.68 29.08 50.04 28.98 50.3 28.71L53.45 25.56C53.89 25.13 53.89 24.43 53.45 23.99L46.78 17.32C46.35 16.89 45.64 16.89 45.21 17.32ZM49.52 26.35L49.01 25.85C48.31 25.15 47.11 25.64 47.11 26.63L47.11 33.77C47.11 34.38 47.61 34.88 48.22 34.88L55.36 34.88C56.35 34.88 56.85 33.68 56.14 32.98L55.64 32.48L57.21 30.9L62.31 36L57.21 41.09L55.64 39.52L56.14 39.01C56.84 38.31 56.35 37.11 55.36 37.11L48.22 37.11C47.61 37.11 47.11 37.61 47.11 38.22L47.11 45.36C47.11 46.35 48.31 46.84 49.01 46.14L49.52 45.64L51.09 47.21L46 52.31L40.9 47.21L42.48 45.64L42.98 46.14C43.68 46.84 44.88 46.35 44.88 45.36L44.88 38.22C44.88 37.61 44.38 37.11 43.77 37.11L36.63 37.11C35.65 37.11 35.15 38.31 35.85 39.01L36.35 39.52L34.78 41.09L29.68 36L34.78 30.9L36.35 32.47L35.85 32.98C35.15 33.68 35.64 34.88 36.63 34.88L43.77 34.88C44.38 34.88 44.88 34.38 44.88 33.77L44.88 26.63C44.88 25.65 43.68 25.15 42.98 25.85L42.48 26.35L40.9 24.78L46 19.68L51.09 24.78L49.52 26.35Z" fill="#FFFFFF" fill-opacity="1.000000" fill-rule="nonzero"/>
	</g>
</svg>
