<svg width="34.692291" height="34.692291" viewBox="0 0 34.6923 34.6923" fill="none" xmlns="http://www.w3.org/2000/svg" xmlns:xlink="http://www.w3.org/1999/xlink">
	<desc>
			Created with Pixso.
	</desc>
	<defs/>
	<path id="Vector" d="M34.3946 0.297668C34.1814 0.0842896 33.884 -0.023468 33.5838 0.00430298C33.4585 0.015686 30.467 0.300171 26.3644 1.67725C13.0125 5.78937 4.1759 18.7361 0.066803 28.102C-0.191833 28.7204 0.33075 29.5483 1.11292 29.4799L5.65152 29.0383L5.21002 33.5765C5.16165 34.2289 5.79498 34.916 6.58801 34.6226C22.8928 27.1934 32.8381 15.8221 34.6881 1.10843C34.7155 0.808014 34.608 0.510925 34.3946 0.297668ZM21.2567 22.6343C19.455 24.2739 17.6791 25.6833 16.0375 26.8706L16.0375 9.56729C17.7583 8.15698 19.5418 7.01389 21.2567 6.091L21.2567 22.6343ZM11.3397 29.9453C9.72632 30.8932 8.36447 31.5851 7.40128 32.0417L7.79391 28.0059C7.85217 27.4808 7.36639 26.8164 6.68414 26.8962L2.64957 27.2886C4.01257 24.3968 7.6835 17.6638 14.0052 11.3976L14.0052 28.2784C13.031 28.9243 12.1322 29.4797 11.3397 29.9453ZM31.0693 7.737C29.8759 11.2737 27.5584 16.3797 23.289 20.6904L23.289 5.07867C26.0701 3.73547 30.3191 2.53149 32.4799 2.21225C32.2728 3.42572 31.8571 5.40231 31.0693 7.737Z" fill="#FFFFFF" fill-opacity="1.000000" fill-rule="nonzero"/>
</svg>
