<svg width="32.000000" height="32.000000" viewBox="0 0 32 32" fill="none" xmlns="http://www.w3.org/2000/svg" xmlns:xlink="http://www.w3.org/1999/xlink">
	<desc>
			Created with Pixso.
	</desc>
	<defs>
		<clipPath id="clip36_385">
			<rect id="life time" width="32.000000" height="32.000000" fill="white" fill-opacity="0"/>
		</clipPath>
	</defs>
	<rect id="life time" width="32.000000" height="32.000000" fill="#FFFFFF" fill-opacity="0"/>
	<g clip-path="url(#clip36_385)">
		<path id="Vector" d="M24 26L23 26L23 22.72C23 21.09 22.3 19.54 21.09 18.45L19.4 16.93C19.13 16.68 18.99 16.35 18.99 16C18.99 15.64 19.13 15.31 19.4 15.07L21.09 13.54C22.3 12.45 23 10.9 23 9.27L23 6L24 6C24.55 6 25 5.55 25 5C25 4.44 24.55 4 24 4L8 4C7.44 4 7 4.44 7 5C7 5.55 7.44 6 8 6L9 6L9 9.27C9 10.9 9.69 12.45 10.9 13.54L12.59 15.06C12.86 15.31 13.01 15.64 13.01 16C13.01 16.35 12.86 16.68 12.59 16.92L10.9 18.45C9.69 19.54 9 21.09 9 22.72L9 26L8 26C7.44 26 7 26.44 7 27C7 27.55 7.44 28 8 28L24 28C24.55 28 25 27.55 25 27C25 26.44 24.55 26 24 26ZM12 22.82C12 22.09 12.28 21.4 12.8 20.88L15.47 18.21C15.76 17.92 16.23 17.92 16.53 18.21L19.19 20.88C19.71 21.4 20 22.09 20 22.82L20 26L12 26L12 22.82Z" fill="#000000" fill-opacity="1.000000" fill-rule="nonzero"/>
	</g>
</svg>
