<svg width="34.692307" height="34.692352" viewBox="0 0 34.6923 34.6924" fill="none" xmlns="http://www.w3.org/2000/svg" xmlns:xlink="http://www.w3.org/1999/xlink">
	<desc>
			Created with Pixso.
	</desc>
	<defs/>
	<path id="Vector" d="M33.6759 12.2643L26.4023 12.2643C26.403 12.2579 26.4041 12.2516 26.4048 12.2452C27.2511 11.517 27.9276 10.6523 28.419 9.66974C28.5766 9.35464 28.5598 8.9805 28.3746 8.68085C28.1893 8.38116 27.8622 8.19876 27.5099 8.19876L25.941 8.19876C25.6006 7.23578 25.1037 6.34653 24.4571 5.54358C24.54 4.43134 24.4068 3.34305 24.0599 2.30215C23.9485 1.96796 23.6719 1.7153 23.3291 1.6344C22.9862 1.55344 22.6261 1.65588 22.3769 1.90488L21.2653 3.01654C20.3468 2.57745 19.3689 2.30032 18.3453 2.18927C17.5783 1.28571 16.6942 0.570526 15.7679 0.10733C15.4529 -0.0502014 15.0788 -0.0334167 14.779 0.151764C14.4794 0.336945 14.297 0.664093 14.297 1.01636L14.297 2.65302C13.3341 2.99335 12.4447 3.49036 11.6418 4.13699C10.5297 4.05411 9.44125 4.18726 8.40056 4.53424C8.06638 4.64563 7.81369 4.92218 7.73279 5.26495C7.65189 5.60776 7.75421 5.96808 8.00328 6.2171L9.11473 7.32861C8.67538 8.24774 8.39812 9.22632 8.28726 10.2507C7.60629 10.8367 7.03549 11.5111 6.5824 12.2643L1.01637 12.2643C0.455063 12.2643 0 12.7194 0 13.2807L0 17.3462C0 17.9075 0.455063 18.3626 1.01637 18.3626L2.10051 18.3626L2.10051 33.676C2.10051 34.2373 2.55557 34.6924 3.11688 34.6924L7.18239 34.6924C7.7437 34.6924 8.19876 34.2373 8.19876 33.676L8.19876 30.2309L17.3462 26.5719L26.4935 30.2309L26.4935 33.6759C26.4935 34.2372 26.9486 34.6923 27.5099 34.6923L31.5754 34.6923C32.1367 34.6923 32.5918 34.2372 32.5918 33.6759L32.5918 18.3625L33.6759 18.3625C34.2372 18.3625 34.6923 17.9075 34.6923 17.3461L34.6923 13.2806C34.6923 12.7193 34.2372 12.2643 33.6759 12.2643ZM9.88602 11.5688C10.1178 11.3893 10.2609 11.1185 10.2783 10.8257C10.3462 9.69128 10.6698 8.62537 11.2405 7.65771C11.476 7.25848 11.4114 6.75049 11.0837 6.42273L10.81 6.14908C11.1498 6.13864 11.4941 6.15536 11.8413 6.19934C12.1321 6.23621 12.4249 6.14569 12.6441 5.95087C13.4934 5.19644 14.4772 4.67072 15.5682 4.38815C16.0166 4.27216 16.3298 3.86758 16.3298 3.40439L16.3298 3.00223C16.5717 3.2402 16.8046 3.50302 17.0252 3.7879C17.2047 4.01968 17.4755 4.16266 17.7682 4.18015C18.9026 4.24789 19.9685 4.57166 20.9363 5.1423C21.3356 5.37772 21.8435 5.3132 22.1712 4.98553L22.445 4.71179C22.4554 5.05157 22.4387 5.39587 22.3947 5.74313C22.3578 6.03403 22.4484 6.32666 22.6432 6.54593C23.3976 7.3952 23.9233 8.379 24.2059 9.46997C24.3219 9.9184 24.7266 10.2316 25.1898 10.2316L25.5734 10.2316C25.3399 10.4799 25.0839 10.7121 24.8064 10.927C24.5746 11.1065 24.4316 11.3773 24.4141 11.67C24.4022 11.8692 24.3816 12.0676 24.3534 12.2643L20.2205 12.2643C20.3333 11.9462 20.3953 11.6042 20.3953 11.248C20.3953 9.56668 19.0274 8.19882 17.3462 8.19882C15.6649 8.19882 14.297 9.56668 14.297 11.248C14.297 11.6042 14.359 11.9462 14.4718 12.2643L9.11948 12.2643C9.35303 12.0159 9.60855 11.7837 9.88602 11.5688ZM18.3625 11.2479C18.3625 11.8083 17.9066 12.2643 17.3462 12.2643C16.7857 12.2643 16.3298 11.8083 16.3298 11.2479C16.3298 10.6875 16.7857 10.2315 17.3462 10.2315C17.9066 10.2315 18.3625 10.6875 18.3625 11.2479ZM6.16602 32.6595L4.13327 32.6595L4.13327 18.3625L6.16602 18.3625C6.16602 18.3556 6.16608 28.3977 6.16602 32.6595ZM8.19876 28.0415L8.19876 22.9129L14.6095 25.4771L8.19876 28.0415ZM26.4935 28.0415L20.0829 25.4771L26.4935 22.9129L26.4935 28.0415ZM26.4935 20.7236L17.3462 24.3825L8.19876 20.7236L8.19876 18.3625L26.4935 18.3625L26.4935 20.7236ZM30.5591 32.6595L28.5263 32.6595C28.5263 30.8567 28.5263 20.5366 28.5263 18.3625L30.5591 18.3625L30.5591 32.6595ZM32.6595 16.3298L2.03275 16.3298L2.03275 14.297L32.6595 14.297L32.6595 16.3298Z" fill="#FFFFFF" fill-opacity="1.000000" fill-rule="nonzero"/>
</svg>
