<svg width="43.828125" height="68.000000" viewBox="0 0 43.8281 68" fill="none" xmlns="http://www.w3.org/2000/svg" xmlns:xlink="http://www.w3.org/1999/xlink">
	<desc>
			Created with Pixso.
	</desc>
	<defs/>
	<path id="Vector" d="M41.8359 60.0312L35.8594 60.0312L35.8594 55.7812L38.5223 55.7812C39.6225 55.7812 40.5145 54.8893 40.5145 53.7891C40.5145 52.6888 39.6225 51.7969 38.5223 51.7969L35.8594 51.7969L35.8594 47.8125L41.1785 47.8125C42.2787 47.8125 43.1707 46.9205 43.1707 45.8203C43.1707 44.7201 42.2787 43.8281 41.1785 43.8281L35.8594 43.8281L35.8594 39.8438L38.5223 39.8438C39.6225 39.8438 40.5145 38.9518 40.5145 37.8516C40.5145 36.7513 39.6225 35.8594 38.5223 35.8594L35.8594 35.8594L35.8594 31.875L41.1785 31.875C42.2787 31.875 43.1707 30.983 43.1707 29.8828C43.1707 28.7826 42.2787 27.8906 41.1785 27.8906L35.8594 27.8906L35.8594 23.9062L38.5223 23.9062C39.6225 23.9062 40.5145 23.0143 40.5145 21.9141C40.5145 20.8138 39.6225 19.9219 38.5223 19.9219L35.8594 19.9219L35.8594 15.9375L41.1785 15.9375C42.2787 15.9375 43.1707 15.0455 43.1707 13.9453C43.1707 12.8451 42.2787 11.9531 41.1785 11.9531L35.8594 11.9531L35.8594 7.96875L38.5223 7.96875C39.6225 7.96875 40.5145 7.07678 40.5145 5.97656C40.5145 4.87634 39.6225 3.98438 38.5223 3.98438L35.8594 3.98438L35.8594 1.99219C35.8594 0.891968 34.9674 0 33.8672 0C32.767 0 31.875 0.891968 31.875 1.99219L31.875 60.0312L24.6821 60.0312L25.7778 42.5L25.9051 42.5C27.0053 42.5 27.8973 41.608 27.8973 40.5078L27.8973 27.2233C27.8973 22.8007 24.9982 19.0441 21.0014 17.7493C22.7475 16.7048 23.9195 14.7956 23.9195 12.6172C23.9195 9.32172 21.2384 6.64062 17.943 6.64062C14.6475 6.64062 11.9664 9.32172 11.9664 12.6172C11.9664 14.7947 13.1373 16.703 14.882 17.7479C10.8831 19.0414 7.98203 22.7991 7.98203 27.2233L7.98203 40.5078C7.98203 41.608 8.87399 42.5 9.97421 42.5L10.0948 42.5L11.1905 60.0312L1.99219 60.0312C0.891968 60.0312 0 60.9232 0 62.0234L0 66.0078C0 67.108 0.891968 68 1.99219 68C3.09241 68 3.98438 67.108 3.98438 66.0078L3.98438 64.0156L39.8438 64.0156L39.8438 66.0078C39.8438 67.108 40.7357 68 41.8359 68C42.9362 68 43.8281 67.108 43.8281 66.0078L43.8281 62.0234C43.8281 60.9232 42.9362 60.0312 41.8359 60.0312ZM17.943 10.625C19.0415 10.625 19.9352 11.5187 19.9352 12.6172C19.9352 13.7157 19.0415 14.6094 17.943 14.6094C16.8445 14.6094 15.9508 13.7157 15.9508 12.6172C15.9508 11.5187 16.8444 10.625 17.943 10.625ZM11.9664 27.2233C11.9664 23.9296 14.646 21.25 17.9398 21.25C21.2334 21.25 23.913 23.9296 23.913 27.2233L23.913 38.5156L11.9664 38.5156L11.9664 27.2233ZM14.0869 42.5L21.7856 42.5L20.6899 60.0312L15.1826 60.0312L14.0869 42.5Z" fill="#000000" fill-opacity="1.000000" fill-rule="nonzero"/>
</svg>
