<svg width="12.834900" height="13.782379" viewBox="0 0 12.8349 13.7824" fill="none" xmlns="http://www.w3.org/2000/svg" xmlns:xlink="http://www.w3.org/1999/xlink">
	<desc>
			Created with Pixso.
	</desc>
	<defs/>
	<path id="Vector" d="M12.669 12.2789C12.4344 12.78 11.9652 13.0306 11.4959 13.2812C10.9094 13.6571 10.4402 13.7824 9.85367 13.7824C9.03253 13.7824 8.2114 13.4065 7.50757 13.1559C6.92102 12.9053 6.45181 12.6547 5.86526 12.4041C4.22299 11.2765 2.3461 9.27179 1.40765 7.64296C1.05576 7.01648 0.821136 6.5153 0.586517 5.88884C0.351929 5.01178 0 4.26001 0 3.25766C0 2.63118 0.11731 2.00471 0.469208 1.37823C0.703827 0.87706 0.938446 0.375885 1.40765 0.12529C1.75958 0.12529 2.3461 0 2.69803 0C2.81534 0 2.81534 0 2.93265 0C3.16724 0.12529 3.28455 0.501175 3.40186 0.75177C3.63647 1.37823 3.9884 1.87941 4.22299 2.50589C4.45761 2.75647 4.69223 3.00706 4.69223 3.25766C4.69223 3.88412 3.04996 4.76118 3.04996 5.26236C3.04996 5.51295 3.28455 5.88884 3.40186 6.13942C4.3403 7.89354 5.51337 9.14648 7.15564 10.1488C7.39026 10.2741 7.74216 10.5247 7.97678 10.5247C8.44601 10.5247 9.26715 8.77061 9.85367 8.77061C10.0883 8.77061 10.3229 9.02119 10.5575 9.27179C11.0267 9.64767 11.6133 9.89825 12.0825 10.2741C12.3171 10.3994 12.669 10.5247 12.7863 10.7753C12.7863 10.9006 12.7863 10.9006 12.7863 11.0259C12.9036 11.2765 12.7863 11.903 12.669 12.2789Z" fill="#FFFFFF" fill-opacity="1.000000" fill-rule="nonzero"/>
</svg>
