<svg width="34.692310" height="24.051392" viewBox="0 0 34.6923 24.0514" fill="none" xmlns="http://www.w3.org/2000/svg" xmlns:xlink="http://www.w3.org/1999/xlink">
	<desc>
			Created with Pixso.
	</desc>
	<defs/>
	<path id="Vector" d="M34.4627 11.9382L32.424 9.31247L32.426 9.31149L29.1463 2.78854C28.9604 2.41937 28.5825 2.18649 28.1693 2.18649L23.5048 2.18649L23.5048 1.0932C23.5048 0.489349 23.0154 0 22.4116 0L4.1908 0C3.58693 0 3.09758 0.48941 3.09758 1.0932C3.09758 1.69702 3.587 2.18643 4.1908 2.18643L21.3183 2.18643L21.3183 9.83914C21.3183 10.443 21.8077 10.9323 22.4115 10.9323L30.9137 10.9323L32.5058 12.9832L32.5058 18.6215L30.4453 18.6215C29.9714 16.7191 28.2485 15.3054 26.2014 15.3054C24.1544 15.3054 22.4314 16.7192 21.9575 18.6216L15.5043 18.6216C15.0305 16.7192 13.3075 15.3054 11.2604 15.3054C9.21336 15.3054 7.49036 16.7192 7.01652 18.6216L4.1908 18.6216C3.58693 18.6216 3.09758 19.1111 3.09758 19.7148C3.09758 20.3187 3.587 20.8081 4.1908 20.8081L7.03535 20.8081C7.53458 22.6736 9.2396 24.0514 11.2604 24.0514C13.2812 24.0514 14.9862 22.6736 15.4855 20.8081L21.9764 20.8081C22.4756 22.6736 24.1806 24.0514 26.2014 24.0514C28.2226 24.0514 29.9275 22.6736 30.4266 20.8079L33.599 20.8079C34.2029 20.8079 34.6922 20.3185 34.6923 19.7147L34.6923 12.6088C34.6923 12.3661 34.6114 12.1299 34.4627 11.9382ZM29.6936 8.74591L23.5048 8.74591L23.5048 4.37299L27.4951 4.37299L29.6936 8.74591ZM12.2079 4.4823L2.87885 4.4823C2.27499 4.4823 1.78564 4.97171 1.78564 5.5755C1.78564 6.17938 2.27506 6.66873 2.87885 6.66873L12.2079 6.66873C12.8118 6.66873 13.3011 6.17929 13.3011 5.5755L13.3011 5.57538C13.3011 4.97165 12.8117 4.4823 12.2079 4.4823ZM10.4223 8.78238L1.09322 8.78238C0.489418 8.78238 0 9.27179 0 9.87567C0 10.4795 0.489418 10.9689 1.09322 10.9689L10.4223 10.9689C11.0261 10.9689 11.5155 10.4795 11.5155 9.87567C11.5155 9.27185 11.0261 8.78238 10.4223 8.78238ZM7.90781 13.0825L2.87885 13.0825C2.27499 13.0825 1.78564 13.5719 1.78564 14.1758C1.78564 14.7796 2.27506 15.269 2.87885 15.269L7.90775 15.269C8.51161 15.269 9.00096 14.7795 9.00096 14.1758L9.00096 14.1756C9.00096 13.5719 8.51157 13.0825 7.90781 13.0825ZM11.2604 21.8649C10.0546 21.8649 9.07394 20.8842 9.07394 19.6784C9.07394 18.4726 10.0546 17.4919 11.2604 17.4919C12.4659 17.4919 13.4469 18.4726 13.4469 19.6784C13.4469 20.8843 12.4663 21.8649 11.2604 21.8649ZM26.2014 21.8649C24.9956 21.8649 24.0149 20.8842 24.0149 19.6784C24.0149 18.4726 24.9956 17.4919 26.2014 17.4919C27.4073 17.4919 28.3879 18.4726 28.3879 19.6784C28.3879 20.8843 27.4073 21.8649 26.2014 21.8649Z" fill="#FFFFFF" fill-opacity="1.000000" fill-rule="evenodd"/>
</svg>
