<svg width="64.000000" height="64.000000" viewBox="0 0 64 64" fill="none" xmlns="http://www.w3.org/2000/svg" xmlns:xlink="http://www.w3.org/1999/xlink">
	<desc>
			Created with Pixso.
	</desc>
	<defs/>
	<path id="Vector" d="M33.875 30.1812L33.875 19.8167L38.025 19.8167C47.9181 19.8167 55.9666 11.768 55.9666 1.875C55.9666 0.839478 55.1271 0 54.0916 0L48.0646 0C41.0369 0 34.9411 4.06274 31.9996 9.96228C29.0576 4.06262 22.9615 0 15.9334 0L9.90837 0C8.87288 0 8.03337 0.839478 8.03337 1.875C8.03337 11.7681 16.082 19.8167 25.975 19.8167L30.125 19.8167L30.125 30.1812C13.3249 31.1521 0 45.0815 0 62.125C0 63.1605 0.8395 64 1.875 64L62.125 64C63.1605 64 64 63.1605 64 62.125C64 45.0815 50.6751 31.1521 33.875 30.1812ZM48.0646 3.75L52.0932 3.75C51.1726 10.692 45.2145 16.0667 38.025 16.0667L33.9981 16.0667C34.9174 9.12427 40.8751 3.75 48.0646 3.75ZM25.975 16.0667C18.7854 16.0667 12.8272 10.692 11.9067 3.75L15.9334 3.75C23.123 3.75 29.0811 9.12463 30.0016 16.0667L25.975 16.0667ZM3.8105 60.25C4.7385 45.9209 15.2449 38.245 22.0918 35.6658L22.0918 40.3777C22.0918 40.9499 21.8689 41.4879 21.4641 41.8926L15.4391 47.9176C13.1423 50.2145 13.1423 53.9519 15.4391 56.2488L19.44 60.25L3.8105 60.25ZM24.7434 60.25L18.0906 53.5972C17.2542 52.7609 17.2534 51.4065 18.0906 50.5693L24.1156 44.5444C25.2288 43.4314 25.8418 41.9516 25.8418 40.3777L25.8418 34.5489C27.8536 34.1014 29.9191 33.875 32 33.875C36.9144 33.875 41.6772 35.1336 45.9062 37.5338L35.5223 47.9177C33.2226 50.2174 33.2178 53.9449 35.5223 56.2489L39.5234 60.25L24.7434 60.25ZM44.8266 60.25L38.1739 53.5971C37.3382 52.7616 37.3371 51.4062 38.1739 50.5693L49.1001 39.6431C55.6121 44.6034 59.6478 52.1131 60.1879 60.2499L44.8266 60.2499L44.8266 60.25Z" fill="#000000" fill-opacity="1.000000" fill-rule="nonzero"/>
</svg>
