<svg width="32.000000" height="32.000000" viewBox="0 0 32 32" fill="none" xmlns="http://www.w3.org/2000/svg" xmlns:xlink="http://www.w3.org/1999/xlink">
	<desc>
			Created with Pixso.
	</desc>
	<defs>
		<clipPath id="clip36_368">
			<rect id="thickness" width="32.000000" height="32.000000" fill="white" fill-opacity="0"/>
		</clipPath>
	</defs>
	<rect id="thickness" width="32.000000" height="32.000000" fill="#FFFFFF" fill-opacity="0"/>
	<g clip-path="url(#clip36_368)">
		<path id="Vector" d="M26.59 9.48L5.45 9.48C4.67 9.48 4.04 10.11 4.04 10.89C4.04 11.66 4.67 12.29 5.45 12.29L26.59 12.29C27.37 12.29 28 11.66 28 10.89C28 10.11 27.37 9.48 26.59 9.48Z" fill="#000000" fill-opacity="1.000000" fill-rule="nonzero"/>
		<path id="Vector" d="M27.06 4L4.93 4C4.41 4 4 4.41 4 4.93C4 5.45 4.41 5.87 4.93 5.87L27.06 5.87C27.58 5.87 28 5.45 28 4.93C28 4.41 27.58 4 27.06 4Z" fill="#000000" fill-opacity="1.000000" fill-rule="nonzero"/>
		<path id="Vector" d="M25.65 23.31L6.39 23.31C5.09 23.31 4.04 24.36 4.04 25.65C4.04 26.95 5.09 28 6.39 28L25.65 28C26.95 28 28 26.95 28 25.65C28 24.36 26.95 23.31 25.65 23.31Z" fill="#000000" fill-opacity="1.000000" fill-rule="nonzero"/>
		<path id="Vector" d="M26.12 15.9L5.92 15.9C4.88 15.9 4.04 16.74 4.04 17.78C4.04 18.81 4.88 19.65 5.92 19.65L26.12 19.65C27.16 19.65 28 18.81 28 17.78C28 16.74 27.16 15.9 26.12 15.9Z" fill="#000000" fill-opacity="1.000000" fill-rule="nonzero"/>
	</g>
</svg>
