<svg width="68.000000" height="68.000000" viewBox="0 0 68 68" fill="none" xmlns="http://www.w3.org/2000/svg" xmlns:xlink="http://www.w3.org/1999/xlink">
	<desc>
			Created with Pixso.
	</desc>
	<defs/>
	<path id="Vector" d="M67.58 64.7842C67.4752 64.6494 64.9503 61.4478 59.6006 58.2906C56.9904 56.75 53.3914 55.0512 48.7861 53.8093C49.7611 50.514 50.8712 45.7687 51.3499 40.1027C51.8914 33.6964 51.5072 27.4363 50.2076 21.4963C48.5791 14.0532 45.5041 7.10364 41.0679 0.840698C40.6944 0.313416 40.0884 0 39.4422 0C38.7961 0 38.1901 0.313293 37.8166 0.840698C36.4181 2.81506 35.155 4.85803 34.0297 6.96283C32.9044 4.85791 31.6415 2.81506 30.2429 0.840698C29.8694 0.313416 29.2634 0 28.6172 0C27.9711 0 27.3651 0.313293 26.9916 0.840698C22.5554 7.10345 19.4804 14.053 17.8518 21.4965C16.5523 27.4364 16.168 33.6964 16.7095 40.1028C17.2018 45.9283 18.3615 50.7807 19.3554 54.0843C15.1095 55.2884 11.6855 56.8436 9.12061 58.2632C3.46716 61.3926 0.622742 64.5502 0.504395 64.683C-0.0175476 65.2692 -0.146637 66.1072 0.1745 66.8231C0.495636 67.5391 1.20737 68 1.99216 68L66.0078 68C66.7688 68 67.4633 67.5663 67.7976 66.8828C68.1317 66.1992 68.0474 65.3849 67.58 64.7842ZM20.9628 26.9581L34.3264 17.8771C34.7222 19.1401 35.0719 20.42 35.3722 21.7177L20.5296 31.8038C20.6035 30.2441 20.7425 28.6243 20.9628 26.9581ZM21.9738 21.4539C23.1906 16.3163 25.2642 10.9068 28.6188 5.5744C30.3273 8.27899 31.7667 11.0904 32.9405 14.0015L21.9738 21.4539ZM20.4961 36.6438L36.179 25.9865C36.8241 30.3597 36.9548 34.9113 36.5666 39.6274C36.1538 44.6411 35.1975 48.9293 34.323 52.0159C30.2386 52.0394 26.5399 52.4701 23.2384 53.1424C22.2965 50.0504 21.1538 45.3767 20.6797 39.7673C20.5957 38.7749 20.5323 37.7314 20.4961 36.6438ZM34.6735 55.9971C45.4742 55.9971 52.9886 59.0514 57.3905 61.6136C58.8019 62.4352 59.9934 63.2602 60.9717 64.0156L7.43402 64.0156C12.1776 60.6701 21.2129 55.9971 34.6735 55.9971ZM39.444 5.5744C45.7576 15.5693 48.4302 27.0098 47.3914 39.6274C46.9364 45.1541 45.8212 49.7995 44.8829 52.9247C42.8862 52.5547 40.7358 52.2795 38.4326 52.1331C39.2726 48.9847 40.1222 44.8693 40.5251 40.1028C41.0665 33.6965 40.6823 27.4364 39.3827 21.4965C38.6317 18.0635 37.5721 14.736 36.214 11.532C37.1285 9.54749 38.1975 7.55554 39.444 5.5744Z" fill="#000000" fill-opacity="1.000000" fill-rule="nonzero"/>
</svg>
