<svg width="32.000000" height="32.000000" viewBox="0 0 32 32" fill="none" xmlns="http://www.w3.org/2000/svg" xmlns:xlink="http://www.w3.org/1999/xlink">
	<desc>
			Created with Pixso.
	</desc>
	<defs>
		<clipPath id="clip36_388">
			<rect id="weight " width="32.000000" height="32.000000" fill="white" fill-opacity="0"/>
		</clipPath>
	</defs>
	<rect id="weight " width="32.000000" height="32.000000" fill="#FFFFFF" fill-opacity="0"/>
	<g clip-path="url(#clip36_388)">
		<path id="Vector" d="M26.98 25.13L24.88 12.62C24.69 11.44 23.66 10.57 22.47 10.57L19.32 10.57C19.69 9.93 19.9 9.19 19.9 8.39C19.9 5.97 17.93 4 15.5 4C13.08 4 11.11 5.97 11.11 8.39C11.11 9.19 11.32 9.93 11.69 10.57L8.54 10.57C7.34 10.57 6.32 11.44 6.12 12.62L4.03 25.13C3.91 25.84 4.11 26.57 4.58 27.12C5.04 27.67 5.72 28 6.44 28L24.56 28C25.28 28 25.97 27.67 26.43 27.12C26.9 26.57 27.1 25.84 26.98 25.13ZM15.5 6.56C16.52 6.56 17.34 7.38 17.34 8.39C17.34 9.4 16.52 10.23 15.5 10.23C14.49 10.23 13.67 9.4 13.67 8.39C13.67 7.38 14.49 6.56 15.5 6.56Z" fill="#000000" fill-opacity="1.000000" fill-rule="nonzero"/>
	</g>
</svg>
