<svg width="0" height="0" class="hidden">
  <symbol fill="none" xmlns="http://www.w3.org/2000/svg" xmlns:xlink="http://www.w3.org/1999/xlink" viewBox="0 0 34.6923 34.6923" id="dis">
    <desc>Created with Pixso.</desc>
    <defs></defs>
    <path id="Vector" d="M34.3946 0.297668C34.1814 0.0842896 33.884 -0.023468 33.5838 0.00430298C33.4585 0.015686 30.467 0.300171 26.3644 1.67725C13.0125 5.78937 4.1759 18.7361 0.066803 28.102C-0.191833 28.7204 0.33075 29.5483 1.11292 29.4799L5.65152 29.0383L5.21002 33.5765C5.16165 34.2289 5.79498 34.916 6.58801 34.6226C22.8928 27.1934 32.8381 15.8221 34.6881 1.10843C34.7155 0.808014 34.608 0.510925 34.3946 0.297668ZM21.2567 22.6343C19.455 24.2739 17.6791 25.6833 16.0375 26.8706L16.0375 9.56729C17.7583 8.15698 19.5418 7.01389 21.2567 6.091L21.2567 22.6343ZM11.3397 29.9453C9.72632 30.8932 8.36447 31.5851 7.40128 32.0417L7.79391 28.0059C7.85217 27.4808 7.36639 26.8164 6.68414 26.8962L2.64957 27.2886C4.01257 24.3968 7.6835 17.6638 14.0052 11.3976L14.0052 28.2784C13.031 28.9243 12.1322 29.4797 11.3397 29.9453ZM31.0693 7.737C29.8759 11.2737 27.5584 16.3797 23.289 20.6904L23.289 5.07867C26.0701 3.73547 30.3191 2.53149 32.4799 2.21225C32.2728 3.42572 31.8571 5.40231 31.0693 7.737Z" fill="#FFFFFF" fill-opacity="1.000000" fill-rule="nonzero"></path>
  </symbol>
  <symbol fill="none" xmlns="http://www.w3.org/2000/svg" xmlns:xlink="http://www.w3.org/1999/xlink" viewBox="0 0 55.5632 39.264" id="logo">
    <desc>Created with Pixso.</desc>
    <defs></defs>
    <path id="Vector" d="M12.5753 18.552C11.5673 18.552 10.6793 18.376 9.91132 18.024C9.14334 17.672 8.55133 17.184 8.13535 16.56C7.71936 15.92 7.51135 15.184 7.51135 14.352C7.51135 13.648 7.65533 13.008 7.94336 12.432C8.24734 11.856 8.64734 11.4 9.14334 11.064C9.65533 10.728 10.2153 10.56 10.8233 10.56C11.3833 10.56 11.8553 10.704 12.2393 10.992C12.6233 11.264 12.8633 11.648 12.9593 12.144C12.1273 12.144 11.4633 12.368 10.9673 12.816C10.4713 13.248 10.2233 13.84 10.2233 14.592C10.2233 15.28 10.4313 15.832 10.8473 16.248C11.2633 16.664 11.8153 16.872 12.5033 16.872C13.3513 16.872 14.0473 16.592 14.5913 16.032C15.1513 15.456 15.4313 14.736 15.4313 13.872C15.4313 13.12 15.2233 12.408 14.8073 11.736C14.3913 11.064 13.7673 10.248 12.9353 9.28799C12.0713 8.29601 11.4153 7.448 10.9673 6.744C10.5353 6.024 10.3193 5.24001 10.3193 4.392C10.3193 3.56 10.5513 2.81599 11.0153 2.16C11.4793 1.48801 12.1193 0.960007 12.9353 0.576004C13.7513 0.192001 14.6713 0 15.6953 0C16.9913 0 18.0233 0.304001 18.7913 0.912003C19.5753 1.52 19.9673 2.336 19.9673 3.36C19.9673 4.032 19.7993 4.576 19.4633 4.992C19.1273 5.408 18.6873 5.616 18.1433 5.616C17.5353 5.616 17.0473 5.368 16.6793 4.87199C16.9833 4.64799 17.2233 4.35201 17.3993 3.98399C17.5753 3.616 17.6633 3.23199 17.6633 2.832C17.6633 2.32001 17.5113 1.912 17.2073 1.608C16.9033 1.304 16.4873 1.15201 15.9593 1.15201C15.3193 1.15201 14.7913 1.384 14.3753 1.84801C13.9753 2.29601 13.7753 2.87199 13.7753 3.576C13.7753 4.216 13.9593 4.81599 14.3273 5.37601C14.6953 5.92 15.2713 6.62401 16.0553 7.48801C16.6953 8.17599 17.2073 8.76801 17.5913 9.26401C17.9913 9.75999 18.3273 10.336 18.5993 10.992C18.8873 11.632 19.0313 12.328 19.0313 13.08C19.0313 14.104 18.7433 15.032 18.1673 15.864C17.6073 16.696 16.8313 17.352 15.8393 17.832C14.8633 18.312 13.7753 18.552 12.5753 18.552ZM22.7588 18.264C21.9908 18.264 21.3668 18.024 20.8868 17.544C20.4228 17.064 20.1908 16.344 20.1908 15.384C20.1908 14.984 20.2548 14.464 20.3828 13.824L22.0148 6.12L25.4708 6.12L23.7428 14.28C23.6948 14.52 23.6708 14.744 23.6708 14.952C23.6708 15.608 23.9108 15.936 24.3908 15.936C24.8388 15.936 25.2228 15.752 25.5428 15.384C25.8628 15 26.1188 14.48 26.3108 13.824L27.9428 6.12L31.3988 6.12L29.6708 14.28C29.6068 14.52 29.5748 14.776 29.5748 15.048C29.5748 15.368 29.6468 15.6 29.7908 15.744C29.9508 15.872 30.2068 15.936 30.5588 15.936C31.0068 15.936 31.3908 15.744 31.7108 15.36C32.0468 14.976 32.3108 14.464 32.5028 13.824L33.5108 13.824C32.9188 15.552 32.1828 16.728 31.3028 17.352C30.4388 17.96 29.5668 18.264 28.6868 18.264C27.9988 18.264 27.4468 18.072 27.0308 17.688C26.6308 17.304 26.3908 16.736 26.3108 15.984C25.7668 16.864 25.1908 17.464 24.5828 17.784C23.9908 18.104 23.3828 18.264 22.7588 18.264ZM34.132 6.12L37.588 6.12L37.276 7.608C37.82 7.12801 38.308 6.75999 38.74 6.504C39.188 6.248 39.668 6.12 40.18 6.12C40.692 6.12 41.092 6.29601 41.38 6.64799C41.684 7 41.836 7.424 41.836 7.92C41.836 8.384 41.684 8.79201 41.38 9.144C41.076 9.496 40.652 9.672 40.108 9.672C39.756 9.672 39.516 9.592 39.388 9.43201C39.276 9.256 39.188 9.008 39.124 8.688C39.076 8.48 39.028 8.328 38.98 8.23199C38.932 8.136 38.844 8.088 38.716 8.088C38.38 8.088 38.092 8.16 37.852 8.304C37.628 8.43201 37.332 8.664 36.964 9L35.044 18.12L31.588 18.12L34.132 6.12ZM39.3634 24.12C38.6114 24.12 37.9554 23.872 37.3954 23.376C36.8194 22.896 36.5314 22.28 36.5314 21.528C36.5314 20.84 36.7074 20.272 37.0594 19.824C37.4114 19.376 37.8674 19.016 38.4274 18.744C38.9874 18.488 39.7314 18.216 40.6594 17.928L43.5634 4.224C43.8834 2.688 44.4434 1.62401 45.2434 1.032C46.0594 0.440002 46.9554 0.143997 47.9314 0.143997C48.6834 0.143997 49.3394 0.391998 49.8994 0.888C50.4754 1.368 50.7634 1.98399 50.7634 2.73601C50.7634 3.104 50.7394 3.43201 50.6914 3.72L49.5634 3.72C49.5954 3.368 49.6114 3.15201 49.6114 3.07201C49.6114 2.81599 49.5234 2.616 49.3474 2.472C49.1714 2.328 48.9554 2.256 48.6994 2.256C48.3634 2.256 48.0354 2.408 47.7154 2.71201C47.3954 3 47.1634 3.504 47.0194 4.224L46.6114 6.12L48.3634 6.12L48.1954 7.08L46.4194 7.08L43.6594 20.04C43.3394 21.592 42.7874 22.656 42.0034 23.232C41.2194 23.824 40.3394 24.12 39.3634 24.12ZM38.8114 21.984C39.4514 21.984 39.9074 21.36 40.1794 20.112L40.4914 18.72C39.6434 19.008 38.9954 19.336 38.5474 19.704C38.0834 20.088 37.8514 20.584 37.8514 21.192C37.8514 21.384 37.9474 21.56 38.1394 21.72C38.3314 21.896 38.5554 21.984 38.8114 21.984ZM3.36002 39.264C2.272 39.264 1.44 39 0.864014 38.472C0.287994 37.928 0 37.168 0 36.192C0 35.712 0.0559998 35.256 0.167999 34.824L2.73599 22.8L6.28799 22.32L5.13602 27.72C5.58401 27.448 5.952 27.272 6.23999 27.192C6.52802 27.096 6.81601 27.048 7.104 27.048C8.992 27.048 9.93604 28.416 9.93604 31.152C9.93604 32.256 9.72 33.44 9.28799 34.704C8.87201 35.952 8.168 37.024 7.17599 37.92C6.20001 38.816 4.92801 39.264 3.36002 39.264ZM4.70401 36.936C5.20001 36.936 5.664 36.632 6.09601 36.024C6.52802 35.4 6.87201 34.632 7.12799 33.72C7.384 32.792 7.51199 31.904 7.51199 31.056C7.51199 30.416 7.39999 29.872 7.17599 29.424C6.952 28.976 6.64001 28.752 6.23999 28.752C6 28.752 5.728 28.792 5.42401 28.872C5.13602 28.936 4.936 29.04 4.82401 29.184L3.504 35.28C3.45599 35.472 3.43201 35.656 3.43201 35.832C3.43201 36.568 3.85602 36.936 4.70401 36.936ZM14.336 39.216C13.152 39.216 12.216 38.912 11.528 38.304C10.84 37.696 10.496 36.736 10.496 35.424C10.496 34.336 10.72 33.128 11.168 31.8C11.616 30.472 12.336 29.328 13.328 28.368C14.32 27.392 15.568 26.904 17.072 26.904C19.12 26.904 20.144 28.184 20.144 30.744L20.144 30.768C20.192 30.784 20.28 30.792 20.408 30.792C20.936 30.792 21.544 30.656 22.232 30.384C22.92 30.096 23.544 29.752 24.104 29.352L24.32 30C23.856 30.496 23.248 30.92 22.496 31.272C21.76 31.608 20.952 31.848 20.072 31.992C19.944 33.448 19.616 34.72 19.088 35.808C18.56 36.896 17.88 37.736 17.048 38.328C16.216 38.92 15.312 39.216 14.336 39.216ZM15.296 37.056C15.68 37.056 16.064 36.84 16.448 36.408C16.832 35.96 17.168 35.36 17.456 34.608C17.744 33.84 17.952 32.992 18.08 32.064C17.648 31.968 17.432 31.632 17.432 31.056C17.432 30.4 17.68 29.968 18.176 29.76C18.144 29.232 18.064 28.872 17.936 28.68C17.808 28.472 17.584 28.368 17.264 28.368C16.736 28.368 16.224 28.752 15.728 29.52C15.232 30.288 14.832 31.208 14.528 32.28C14.224 33.352 14.072 34.296 14.072 35.112C14.072 35.88 14.16 36.4 14.336 36.672C14.512 36.928 14.832 37.056 15.296 37.056ZM24.2589 39.264C23.3469 39.264 22.5869 38.952 21.9789 38.328C21.3709 37.704 21.0669 36.728 21.0669 35.4C21.0669 34.216 21.2989 32.976 21.7629 31.68C22.2429 30.368 22.9469 29.264 23.8749 28.368C24.8189 27.456 25.9389 27 27.2349 27C27.8909 27 28.3789 27.112 28.6989 27.336C29.0189 27.56 29.1789 27.856 29.1789 28.224L29.1789 28.392L29.4429 27.12L32.8989 27.12L31.1709 35.28C31.1069 35.52 31.0749 35.776 31.0749 36.048C31.0749 36.736 31.4029 37.08 32.0589 37.08C32.5069 37.08 32.8909 36.872 33.2109 36.456C33.5469 36.04 33.8109 35.496 34.0029 34.824L35.0109 34.824C34.4189 36.552 33.6829 37.728 32.8029 38.352C31.9389 38.96 31.0669 39.264 30.1869 39.264C29.5149 39.264 28.9709 39.08 28.5549 38.712C28.1549 38.328 27.9149 37.776 27.8349 37.056C27.3709 37.712 26.8509 38.248 26.2749 38.664C25.7149 39.064 25.0429 39.264 24.2589 39.264ZM25.8189 36.936C26.2189 36.936 26.6109 36.752 26.9949 36.384C27.3949 36 27.6669 35.48 27.8109 34.824L28.9629 29.4C28.9629 29.192 28.8829 28.992 28.7229 28.8C28.5629 28.592 28.3149 28.488 27.9789 28.488C27.3389 28.488 26.7629 28.864 26.2509 29.616C25.7389 30.352 25.3389 31.248 25.0509 32.304C24.7629 33.344 24.6189 34.264 24.6189 35.064C24.6189 35.864 24.7309 36.376 24.9549 36.6C25.1949 36.824 25.4829 36.936 25.8189 36.936ZM35.6437 27.12L39.0997 27.12L38.7877 28.608C39.3317 28.128 39.8197 27.76 40.2517 27.504C40.6997 27.248 41.1797 27.12 41.6917 27.12C42.2037 27.12 42.6037 27.296 42.8917 27.648C43.1957 28 43.3477 28.424 43.3477 28.92C43.3477 29.384 43.1957 29.792 42.8917 30.144C42.5877 30.496 42.1637 30.672 41.6197 30.672C41.2677 30.672 41.0277 30.592 40.8997 30.432C40.7877 30.256 40.6997 30.008 40.6357 29.688C40.5877 29.48 40.5397 29.328 40.4917 29.232C40.4437 29.136 40.3557 29.088 40.2277 29.088C39.8917 29.088 39.6037 29.16 39.3637 29.304C39.1397 29.432 38.8437 29.664 38.4757 30L36.5557 39.12L33.0997 39.12L35.6437 27.12ZM45.9152 39.264C45.0032 39.264 44.2432 38.952 43.6352 38.328C43.0272 37.704 42.7232 36.728 42.7232 35.4C42.7232 34.216 42.9552 32.976 43.4192 31.68C43.8992 30.368 44.6032 29.264 45.5312 28.368C46.4752 27.456 47.5952 27 48.8912 27C49.5472 27 50.0352 27.112 50.3552 27.336C50.6752 27.56 50.8352 27.856 50.8352 28.224L50.8352 28.32L52.0112 22.8L55.5632 22.32L52.8032 35.28C52.7392 35.52 52.7072 35.752 52.7072 35.976C52.7072 36.616 53.0352 36.936 53.6912 36.936C53.9792 36.936 54.2352 36.888 54.4592 36.792C54.3952 37.592 54.1072 38.208 53.5952 38.64C53.0992 39.056 52.5072 39.264 51.8192 39.264C51.1792 39.264 50.6352 39.104 50.1872 38.784C49.7552 38.448 49.4672 37.944 49.3232 37.272C48.3632 38.6 47.2272 39.264 45.9152 39.264ZM47.4752 36.936C47.8272 36.936 48.1792 36.784 48.5312 36.48C48.8992 36.176 49.1712 35.752 49.3472 35.208L49.4432 34.824L50.6192 29.328C50.4752 28.768 50.1472 28.488 49.6352 28.488C48.9952 28.488 48.4192 28.864 47.9072 29.616C47.3952 30.352 46.9952 31.248 46.7072 32.304C46.4192 33.344 46.2752 34.264 46.2752 35.064C46.2752 35.864 46.3872 36.376 46.6112 36.6C46.8512 36.824 47.1392 36.936 47.4752 36.936Z" fill="#FFFFFF" fill-opacity="1.000000" fill-rule="nonzero"></path>
  </symbol>
  <symbol fill="none" xmlns="http://www.w3.org/2000/svg" xmlns:xlink="http://www.w3.org/1999/xlink" viewBox="0 0 34.6923 34.6924" id="material">
    <desc>Created with Pixso.</desc>
    <defs></defs>
    <path id="Vector" d="M33.6759 12.2643L26.4023 12.2643C26.403 12.2579 26.4041 12.2516 26.4048 12.2452C27.2511 11.517 27.9276 10.6523 28.419 9.66974C28.5766 9.35464 28.5598 8.9805 28.3746 8.68085C28.1893 8.38116 27.8622 8.19876 27.5099 8.19876L25.941 8.19876C25.6006 7.23578 25.1037 6.34653 24.4571 5.54358C24.54 4.43134 24.4068 3.34305 24.0599 2.30215C23.9485 1.96796 23.6719 1.7153 23.3291 1.6344C22.9862 1.55344 22.6261 1.65588 22.3769 1.90488L21.2653 3.01654C20.3468 2.57745 19.3689 2.30032 18.3453 2.18927C17.5783 1.28571 16.6942 0.570526 15.7679 0.10733C15.4529 -0.0502014 15.0788 -0.0334167 14.779 0.151764C14.4794 0.336945 14.297 0.664093 14.297 1.01636L14.297 2.65302C13.3341 2.99335 12.4447 3.49036 11.6418 4.13699C10.5297 4.05411 9.44125 4.18726 8.40056 4.53424C8.06638 4.64563 7.81369 4.92218 7.73279 5.26495C7.65189 5.60776 7.75421 5.96808 8.00328 6.2171L9.11473 7.32861C8.67538 8.24774 8.39812 9.22632 8.28726 10.2507C7.60629 10.8367 7.03549 11.5111 6.5824 12.2643L1.01637 12.2643C0.455063 12.2643 0 12.7194 0 13.2807L0 17.3462C0 17.9075 0.455063 18.3626 1.01637 18.3626L2.10051 18.3626L2.10051 33.676C2.10051 34.2373 2.55557 34.6924 3.11688 34.6924L7.18239 34.6924C7.7437 34.6924 8.19876 34.2373 8.19876 33.676L8.19876 30.2309L17.3462 26.5719L26.4935 30.2309L26.4935 33.6759C26.4935 34.2372 26.9486 34.6923 27.5099 34.6923L31.5754 34.6923C32.1367 34.6923 32.5918 34.2372 32.5918 33.6759L32.5918 18.3625L33.6759 18.3625C34.2372 18.3625 34.6923 17.9075 34.6923 17.3461L34.6923 13.2806C34.6923 12.7193 34.2372 12.2643 33.6759 12.2643ZM9.88602 11.5688C10.1178 11.3893 10.2609 11.1185 10.2783 10.8257C10.3462 9.69128 10.6698 8.62537 11.2405 7.65771C11.476 7.25848 11.4114 6.75049 11.0837 6.42273L10.81 6.14908C11.1498 6.13864 11.4941 6.15536 11.8413 6.19934C12.1321 6.23621 12.4249 6.14569 12.6441 5.95087C13.4934 5.19644 14.4772 4.67072 15.5682 4.38815C16.0166 4.27216 16.3298 3.86758 16.3298 3.40439L16.3298 3.00223C16.5717 3.2402 16.8046 3.50302 17.0252 3.7879C17.2047 4.01968 17.4755 4.16266 17.7682 4.18015C18.9026 4.24789 19.9685 4.57166 20.9363 5.1423C21.3356 5.37772 21.8435 5.3132 22.1712 4.98553L22.445 4.71179C22.4554 5.05157 22.4387 5.39587 22.3947 5.74313C22.3578 6.03403 22.4484 6.32666 22.6432 6.54593C23.3976 7.3952 23.9233 8.379 24.2059 9.46997C24.3219 9.9184 24.7266 10.2316 25.1898 10.2316L25.5734 10.2316C25.3399 10.4799 25.0839 10.7121 24.8064 10.927C24.5746 11.1065 24.4316 11.3773 24.4141 11.67C24.4022 11.8692 24.3816 12.0676 24.3534 12.2643L20.2205 12.2643C20.3333 11.9462 20.3953 11.6042 20.3953 11.248C20.3953 9.56668 19.0274 8.19882 17.3462 8.19882C15.6649 8.19882 14.297 9.56668 14.297 11.248C14.297 11.6042 14.359 11.9462 14.4718 12.2643L9.11948 12.2643C9.35303 12.0159 9.60855 11.7837 9.88602 11.5688ZM18.3625 11.2479C18.3625 11.8083 17.9066 12.2643 17.3462 12.2643C16.7857 12.2643 16.3298 11.8083 16.3298 11.2479C16.3298 10.6875 16.7857 10.2315 17.3462 10.2315C17.9066 10.2315 18.3625 10.6875 18.3625 11.2479ZM6.16602 32.6595L4.13327 32.6595L4.13327 18.3625L6.16602 18.3625C6.16602 18.3556 6.16608 28.3977 6.16602 32.6595ZM8.19876 28.0415L8.19876 22.9129L14.6095 25.4771L8.19876 28.0415ZM26.4935 28.0415L20.0829 25.4771L26.4935 22.9129L26.4935 28.0415ZM26.4935 20.7236L17.3462 24.3825L8.19876 20.7236L8.19876 18.3625L26.4935 18.3625L26.4935 20.7236ZM30.5591 32.6595L28.5263 32.6595C28.5263 30.8567 28.5263 20.5366 28.5263 18.3625L30.5591 18.3625L30.5591 32.6595ZM32.6595 16.3298L2.03275 16.3298L2.03275 14.297L32.6595 14.297L32.6595 16.3298Z" fill="#FFFFFF" fill-opacity="1.000000" fill-rule="nonzero"></path>
  </symbol>
  <symbol fill="none" xmlns="http://www.w3.org/2000/svg" xmlns:xlink="http://www.w3.org/1999/xlink" viewBox="0 0 43.8281 68" id="perfect">
    <desc>Created with Pixso.</desc>
    <defs></defs>
    <path id="Vector" d="M41.8359 60.0312L35.8594 60.0312L35.8594 55.7812L38.5223 55.7812C39.6225 55.7812 40.5145 54.8893 40.5145 53.7891C40.5145 52.6888 39.6225 51.7969 38.5223 51.7969L35.8594 51.7969L35.8594 47.8125L41.1785 47.8125C42.2787 47.8125 43.1707 46.9205 43.1707 45.8203C43.1707 44.7201 42.2787 43.8281 41.1785 43.8281L35.8594 43.8281L35.8594 39.8438L38.5223 39.8438C39.6225 39.8438 40.5145 38.9518 40.5145 37.8516C40.5145 36.7513 39.6225 35.8594 38.5223 35.8594L35.8594 35.8594L35.8594 31.875L41.1785 31.875C42.2787 31.875 43.1707 30.983 43.1707 29.8828C43.1707 28.7826 42.2787 27.8906 41.1785 27.8906L35.8594 27.8906L35.8594 23.9062L38.5223 23.9062C39.6225 23.9062 40.5145 23.0143 40.5145 21.9141C40.5145 20.8138 39.6225 19.9219 38.5223 19.9219L35.8594 19.9219L35.8594 15.9375L41.1785 15.9375C42.2787 15.9375 43.1707 15.0455 43.1707 13.9453C43.1707 12.8451 42.2787 11.9531 41.1785 11.9531L35.8594 11.9531L35.8594 7.96875L38.5223 7.96875C39.6225 7.96875 40.5145 7.07678 40.5145 5.97656C40.5145 4.87634 39.6225 3.98438 38.5223 3.98438L35.8594 3.98438L35.8594 1.99219C35.8594 0.891968 34.9674 0 33.8672 0C32.767 0 31.875 0.891968 31.875 1.99219L31.875 60.0312L24.6821 60.0312L25.7778 42.5L25.9051 42.5C27.0053 42.5 27.8973 41.608 27.8973 40.5078L27.8973 27.2233C27.8973 22.8007 24.9982 19.0441 21.0014 17.7493C22.7475 16.7048 23.9195 14.7956 23.9195 12.6172C23.9195 9.32172 21.2384 6.64062 17.943 6.64062C14.6475 6.64062 11.9664 9.32172 11.9664 12.6172C11.9664 14.7947 13.1373 16.703 14.882 17.7479C10.8831 19.0414 7.98203 22.7991 7.98203 27.2233L7.98203 40.5078C7.98203 41.608 8.87399 42.5 9.97421 42.5L10.0948 42.5L11.1905 60.0312L1.99219 60.0312C0.891968 60.0312 0 60.9232 0 62.0234L0 66.0078C0 67.108 0.891968 68 1.99219 68C3.09241 68 3.98438 67.108 3.98438 66.0078L3.98438 64.0156L39.8438 64.0156L39.8438 66.0078C39.8438 67.108 40.7357 68 41.8359 68C42.9362 68 43.8281 67.108 43.8281 66.0078L43.8281 62.0234C43.8281 60.9232 42.9362 60.0312 41.8359 60.0312ZM17.943 10.625C19.0415 10.625 19.9352 11.5187 19.9352 12.6172C19.9352 13.7157 19.0415 14.6094 17.943 14.6094C16.8445 14.6094 15.9508 13.7157 15.9508 12.6172C15.9508 11.5187 16.8444 10.625 17.943 10.625ZM11.9664 27.2233C11.9664 23.9296 14.646 21.25 17.9398 21.25C21.2334 21.25 23.913 23.9296 23.913 27.2233L23.913 38.5156L11.9664 38.5156L11.9664 27.2233ZM14.0869 42.5L21.7856 42.5L20.6899 60.0312L15.1826 60.0312L14.0869 42.5Z" fill="#000000" fill-opacity="1.000000" fill-rule="nonzero"></path>
  </symbol>
  <symbol fill="none" xmlns="http://www.w3.org/2000/svg" xmlns:xlink="http://www.w3.org/1999/xlink" viewBox="0 0 12.8349 13.7824" id="phone">
    <desc>Created with Pixso.</desc>
    <defs></defs>
    <path id="Vector" d="M12.669 12.2789C12.4344 12.78 11.9652 13.0306 11.4959 13.2812C10.9094 13.6571 10.4402 13.7824 9.85367 13.7824C9.03253 13.7824 8.2114 13.4065 7.50757 13.1559C6.92102 12.9053 6.45181 12.6547 5.86526 12.4041C4.22299 11.2765 2.3461 9.27179 1.40765 7.64296C1.05576 7.01648 0.821136 6.5153 0.586517 5.88884C0.351929 5.01178 0 4.26001 0 3.25766C0 2.63118 0.11731 2.00471 0.469208 1.37823C0.703827 0.87706 0.938446 0.375885 1.40765 0.12529C1.75958 0.12529 2.3461 0 2.69803 0C2.81534 0 2.81534 0 2.93265 0C3.16724 0.12529 3.28455 0.501175 3.40186 0.75177C3.63647 1.37823 3.9884 1.87941 4.22299 2.50589C4.45761 2.75647 4.69223 3.00706 4.69223 3.25766C4.69223 3.88412 3.04996 4.76118 3.04996 5.26236C3.04996 5.51295 3.28455 5.88884 3.40186 6.13942C4.3403 7.89354 5.51337 9.14648 7.15564 10.1488C7.39026 10.2741 7.74216 10.5247 7.97678 10.5247C8.44601 10.5247 9.26715 8.77061 9.85367 8.77061C10.0883 8.77061 10.3229 9.02119 10.5575 9.27179C11.0267 9.64767 11.6133 9.89825 12.0825 10.2741C12.3171 10.3994 12.669 10.5247 12.7863 10.7753C12.7863 10.9006 12.7863 10.9006 12.7863 11.0259C12.9036 11.2765 12.7863 11.903 12.669 12.2789Z" fill="#FFFFFF" fill-opacity="1.000000" fill-rule="nonzero"></path>
  </symbol>
  <symbol fill="none" xmlns="http://www.w3.org/2000/svg" xmlns:xlink="http://www.w3.org/1999/xlink" viewBox="0 0 12.8349 13.7824" id="phone2">
    <desc>Created with Pixso.</desc>
    <defs></defs>
    <path id="Vector" d="M12.669 12.2789C12.4344 12.78 11.9652 13.0306 11.4959 13.2812C10.9094 13.6571 10.4402 13.7824 9.85367 13.7824C9.03253 13.7824 8.2114 13.4065 7.50757 13.1559C6.92102 12.9053 6.45181 12.6547 5.86526 12.4041C4.22299 11.2765 2.3461 9.27179 1.40765 7.64296C1.05576 7.01648 0.821136 6.5153 0.586517 5.88884C0.351929 5.01178 0 4.26001 0 3.25766C0 2.63118 0.11731 2.00471 0.469208 1.37823C0.703827 0.87706 0.938446 0.375885 1.40765 0.12529C1.75958 0.12529 2.3461 0 2.69803 0C2.81534 0 2.81534 0 2.93265 0C3.16724 0.12529 3.28455 0.501175 3.40186 0.75177C3.63647 1.37823 3.9884 1.87941 4.22299 2.50589C4.45761 2.75647 4.69223 3.00706 4.69223 3.25766C4.69223 3.88412 3.04996 4.76118 3.04996 5.26236C3.04996 5.51295 3.28455 5.88884 3.40186 6.13942C4.3403 7.89354 5.51337 9.14648 7.15564 10.1488C7.39026 10.2741 7.74216 10.5247 7.97678 10.5247C8.44601 10.5247 9.26715 8.77061 9.85367 8.77061C10.0883 8.77061 10.3229 9.02119 10.5575 9.27179C11.0267 9.64767 11.6133 9.89825 12.0825 10.2741C12.3171 10.3994 12.669 10.5247 12.7863 10.7753C12.7863 10.9006 12.7863 10.9006 12.7863 11.0259C12.9036 11.2765 12.7863 11.903 12.669 12.2789Z" fill="#000000" fill-opacity="1.000000" fill-rule="nonzero"></path>
  </symbol>
  <symbol fill="none" xmlns="http://www.w3.org/2000/svg" xmlns:xlink="http://www.w3.org/1999/xlink" viewBox="0 0 34.6923 24.0514" id="speed">
    <desc>Created with Pixso.</desc>
    <defs></defs>
    <path id="Vector" d="M34.4627 11.9382L32.424 9.31247L32.426 9.31149L29.1463 2.78854C28.9604 2.41937 28.5825 2.18649 28.1693 2.18649L23.5048 2.18649L23.5048 1.0932C23.5048 0.489349 23.0154 0 22.4116 0L4.1908 0C3.58693 0 3.09758 0.48941 3.09758 1.0932C3.09758 1.69702 3.587 2.18643 4.1908 2.18643L21.3183 2.18643L21.3183 9.83914C21.3183 10.443 21.8077 10.9323 22.4115 10.9323L30.9137 10.9323L32.5058 12.9832L32.5058 18.6215L30.4453 18.6215C29.9714 16.7191 28.2485 15.3054 26.2014 15.3054C24.1544 15.3054 22.4314 16.7192 21.9575 18.6216L15.5043 18.6216C15.0305 16.7192 13.3075 15.3054 11.2604 15.3054C9.21336 15.3054 7.49036 16.7192 7.01652 18.6216L4.1908 18.6216C3.58693 18.6216 3.09758 19.1111 3.09758 19.7148C3.09758 20.3187 3.587 20.8081 4.1908 20.8081L7.03535 20.8081C7.53458 22.6736 9.2396 24.0514 11.2604 24.0514C13.2812 24.0514 14.9862 22.6736 15.4855 20.8081L21.9764 20.8081C22.4756 22.6736 24.1806 24.0514 26.2014 24.0514C28.2226 24.0514 29.9275 22.6736 30.4266 20.8079L33.599 20.8079C34.2029 20.8079 34.6922 20.3185 34.6923 19.7147L34.6923 12.6088C34.6923 12.3661 34.6114 12.1299 34.4627 11.9382ZM29.6936 8.74591L23.5048 8.74591L23.5048 4.37299L27.4951 4.37299L29.6936 8.74591ZM12.2079 4.4823L2.87885 4.4823C2.27499 4.4823 1.78564 4.97171 1.78564 5.5755C1.78564 6.17938 2.27506 6.66873 2.87885 6.66873L12.2079 6.66873C12.8118 6.66873 13.3011 6.17929 13.3011 5.5755L13.3011 5.57538C13.3011 4.97165 12.8117 4.4823 12.2079 4.4823ZM10.4223 8.78238L1.09322 8.78238C0.489418 8.78238 0 9.27179 0 9.87567C0 10.4795 0.489418 10.9689 1.09322 10.9689L10.4223 10.9689C11.0261 10.9689 11.5155 10.4795 11.5155 9.87567C11.5155 9.27185 11.0261 8.78238 10.4223 8.78238ZM7.90781 13.0825L2.87885 13.0825C2.27499 13.0825 1.78564 13.5719 1.78564 14.1758C1.78564 14.7796 2.27506 15.269 2.87885 15.269L7.90775 15.269C8.51161 15.269 9.00096 14.7795 9.00096 14.1758L9.00096 14.1756C9.00096 13.5719 8.51157 13.0825 7.90781 13.0825ZM11.2604 21.8649C10.0546 21.8649 9.07394 20.8842 9.07394 19.6784C9.07394 18.4726 10.0546 17.4919 11.2604 17.4919C12.4659 17.4919 13.4469 18.4726 13.4469 19.6784C13.4469 20.8843 12.4663 21.8649 11.2604 21.8649ZM26.2014 21.8649C24.9956 21.8649 24.0149 20.8842 24.0149 19.6784C24.0149 18.4726 24.9956 17.4919 26.2014 17.4919C27.4073 17.4919 28.3879 18.4726 28.3879 19.6784C28.3879 20.8843 27.4073 21.8649 26.2014 21.8649Z" fill="#FFFFFF" fill-opacity="1.000000" fill-rule="evenodd"></path>
  </symbol>
  <symbol fill="none" xmlns="http://www.w3.org/2000/svg" xmlns:xlink="http://www.w3.org/1999/xlink" viewBox="0 0 64 64" id="strong">
    <desc>Created with Pixso.</desc>
    <defs></defs>
    <path id="Vector" d="M33.875 30.1812L33.875 19.8167L38.025 19.8167C47.9181 19.8167 55.9666 11.768 55.9666 1.875C55.9666 0.839478 55.1271 0 54.0916 0L48.0646 0C41.0369 0 34.9411 4.06274 31.9996 9.96228C29.0576 4.06262 22.9615 0 15.9334 0L9.90837 0C8.87288 0 8.03337 0.839478 8.03337 1.875C8.03337 11.7681 16.082 19.8167 25.975 19.8167L30.125 19.8167L30.125 30.1812C13.3249 31.1521 0 45.0815 0 62.125C0 63.1605 0.8395 64 1.875 64L62.125 64C63.1605 64 64 63.1605 64 62.125C64 45.0815 50.6751 31.1521 33.875 30.1812ZM48.0646 3.75L52.0932 3.75C51.1726 10.692 45.2145 16.0667 38.025 16.0667L33.9981 16.0667C34.9174 9.12427 40.8751 3.75 48.0646 3.75ZM25.975 16.0667C18.7854 16.0667 12.8272 10.692 11.9067 3.75L15.9334 3.75C23.123 3.75 29.0811 9.12463 30.0016 16.0667L25.975 16.0667ZM3.8105 60.25C4.7385 45.9209 15.2449 38.245 22.0918 35.6658L22.0918 40.3777C22.0918 40.9499 21.8689 41.4879 21.4641 41.8926L15.4391 47.9176C13.1423 50.2145 13.1423 53.9519 15.4391 56.2488L19.44 60.25L3.8105 60.25ZM24.7434 60.25L18.0906 53.5972C17.2542 52.7609 17.2534 51.4065 18.0906 50.5693L24.1156 44.5444C25.2288 43.4314 25.8418 41.9516 25.8418 40.3777L25.8418 34.5489C27.8536 34.1014 29.9191 33.875 32 33.875C36.9144 33.875 41.6772 35.1336 45.9062 37.5338L35.5223 47.9177C33.2226 50.2174 33.2178 53.9449 35.5223 56.2489L39.5234 60.25L24.7434 60.25ZM44.8266 60.25L38.1739 53.5971C37.3382 52.7616 37.3371 51.4062 38.1739 50.5693L49.1001 39.6431C55.6121 44.6034 59.6478 52.1131 60.1879 60.2499L44.8266 60.2499L44.8266 60.25Z" fill="#000000" fill-opacity="1.000000" fill-rule="nonzero"></path>
  </symbol>
  <symbol fill="none" xmlns="http://www.w3.org/2000/svg" xmlns:xlink="http://www.w3.org/1999/xlink" viewBox="0 0 68 68" id="uniq">
    <desc>Created with Pixso.</desc>
    <defs></defs>
    <path id="Vector" d="M67.58 64.7842C67.4752 64.6494 64.9503 61.4478 59.6006 58.2906C56.9904 56.75 53.3914 55.0512 48.7861 53.8093C49.7611 50.514 50.8712 45.7687 51.3499 40.1027C51.8914 33.6964 51.5072 27.4363 50.2076 21.4963C48.5791 14.0532 45.5041 7.10364 41.0679 0.840698C40.6944 0.313416 40.0884 0 39.4422 0C38.7961 0 38.1901 0.313293 37.8166 0.840698C36.4181 2.81506 35.155 4.85803 34.0297 6.96283C32.9044 4.85791 31.6415 2.81506 30.2429 0.840698C29.8694 0.313416 29.2634 0 28.6172 0C27.9711 0 27.3651 0.313293 26.9916 0.840698C22.5554 7.10345 19.4804 14.053 17.8518 21.4965C16.5523 27.4364 16.168 33.6964 16.7095 40.1028C17.2018 45.9283 18.3615 50.7807 19.3554 54.0843C15.1095 55.2884 11.6855 56.8436 9.12061 58.2632C3.46716 61.3926 0.622742 64.5502 0.504395 64.683C-0.0175476 65.2692 -0.146637 66.1072 0.1745 66.8231C0.495636 67.5391 1.20737 68 1.99216 68L66.0078 68C66.7688 68 67.4633 67.5663 67.7976 66.8828C68.1317 66.1992 68.0474 65.3849 67.58 64.7842ZM20.9628 26.9581L34.3264 17.8771C34.7222 19.1401 35.0719 20.42 35.3722 21.7177L20.5296 31.8038C20.6035 30.2441 20.7425 28.6243 20.9628 26.9581ZM21.9738 21.4539C23.1906 16.3163 25.2642 10.9068 28.6188 5.5744C30.3273 8.27899 31.7667 11.0904 32.9405 14.0015L21.9738 21.4539ZM20.4961 36.6438L36.179 25.9865C36.8241 30.3597 36.9548 34.9113 36.5666 39.6274C36.1538 44.6411 35.1975 48.9293 34.323 52.0159C30.2386 52.0394 26.5399 52.4701 23.2384 53.1424C22.2965 50.0504 21.1538 45.3767 20.6797 39.7673C20.5957 38.7749 20.5323 37.7314 20.4961 36.6438ZM34.6735 55.9971C45.4742 55.9971 52.9886 59.0514 57.3905 61.6136C58.8019 62.4352 59.9934 63.2602 60.9717 64.0156L7.43402 64.0156C12.1776 60.6701 21.2129 55.9971 34.6735 55.9971ZM39.444 5.5744C45.7576 15.5693 48.4302 27.0098 47.3914 39.6274C46.9364 45.1541 45.8212 49.7995 44.8829 52.9247C42.8862 52.5547 40.7358 52.2795 38.4326 52.1331C39.2726 48.9847 40.1222 44.8693 40.5251 40.1028C41.0665 33.6965 40.6823 27.4364 39.3827 21.4965C38.6317 18.0635 37.5721 14.736 36.214 11.532C37.1285 9.54749 38.1975 7.55554 39.444 5.5744Z" fill="#000000" fill-opacity="1.000000" fill-rule="nonzero"></path>
  </symbol>
</svg>